<svg width="33" height="30" viewBox="0 0 33 30" fill="none" xmlns="http://www.w3.org/2000/svg">
<rect width="32.132" height="30" rx="4" fill="#0095DA"/>
<path d="M12.1968 10.4512V19H10.5093V12.3965L8.48193 13.041V11.7109L12.0151 10.4512H12.1968ZM21.3163 13.9844V15.4609C21.3163 16.1016 21.2479 16.6543 21.1112 17.1191C20.9745 17.5801 20.7772 17.959 20.5194 18.2559C20.2655 18.5488 19.9628 18.7656 19.6112 18.9062C19.2597 19.0469 18.869 19.1172 18.4394 19.1172C18.0956 19.1172 17.7753 19.0742 17.4784 18.9883C17.1815 18.8984 16.914 18.7598 16.6757 18.5723C16.4413 18.3848 16.2382 18.1484 16.0663 17.8633C15.8983 17.5742 15.7694 17.2305 15.6796 16.832C15.5897 16.4336 15.5448 15.9766 15.5448 15.4609V13.9844C15.5448 13.3438 15.6132 12.7949 15.7499 12.3379C15.8905 11.877 16.0878 11.5 16.3417 11.207C16.5995 10.9141 16.9042 10.6992 17.2558 10.5625C17.6073 10.4219 17.9979 10.3516 18.4276 10.3516C18.7714 10.3516 19.0897 10.3965 19.3827 10.4863C19.6796 10.5723 19.9472 10.707 20.1854 10.8906C20.4237 11.0742 20.6269 11.3105 20.7948 11.5996C20.9628 11.8848 21.0917 12.2266 21.1815 12.625C21.2714 13.0195 21.3163 13.4727 21.3163 13.9844ZM19.6229 15.6836V13.7559C19.6229 13.4473 19.6054 13.1777 19.5702 12.9473C19.539 12.7168 19.4901 12.5215 19.4237 12.3613C19.3573 12.1973 19.2753 12.0645 19.1776 11.9629C19.08 11.8613 18.9687 11.7871 18.8437 11.7402C18.7187 11.6934 18.58 11.6699 18.4276 11.6699C18.2362 11.6699 18.0663 11.707 17.9179 11.7812C17.7733 11.8555 17.6503 11.9746 17.5487 12.1387C17.4472 12.2988 17.369 12.5137 17.3144 12.7832C17.2636 13.0488 17.2382 13.373 17.2382 13.7559V15.6836C17.2382 15.9922 17.2538 16.2637 17.2851 16.498C17.3202 16.7324 17.371 16.9336 17.4374 17.1016C17.5077 17.2656 17.5897 17.4004 17.6835 17.5059C17.7812 17.6074 17.8925 17.6816 18.0175 17.7285C18.1464 17.7754 18.287 17.7988 18.4394 17.7988C18.6269 17.7988 18.7929 17.7617 18.9374 17.6875C19.0858 17.6094 19.2108 17.4883 19.3124 17.3242C19.4179 17.1562 19.496 16.9375 19.5468 16.668C19.5976 16.3984 19.6229 16.0703 19.6229 15.6836Z" fill="white"/>
</svg>
