<svg width="33" height="30" viewBox="0 0 33 30" fill="none" xmlns="http://www.w3.org/2000/svg">
<rect width="32.132" height="30" rx="4" fill="#FBC115"/>
<path d="M12.1967 10.4512V19H10.5092V12.3965L8.48181 13.041V11.7109L12.015 10.4512H12.1967ZM21.4099 17.6816V19H15.574V17.875L18.3338 14.916C18.6111 14.6074 18.8299 14.3359 18.99 14.1016C19.1502 13.8633 19.2654 13.6504 19.3357 13.4629C19.4099 13.2715 19.447 13.0898 19.447 12.918C19.447 12.6602 19.4041 12.4395 19.3181 12.2559C19.2322 12.0684 19.1052 11.9238 18.9373 11.8223C18.7732 11.7207 18.5701 11.6699 18.3279 11.6699C18.0701 11.6699 17.8474 11.7324 17.6599 11.8574C17.4763 11.9824 17.3357 12.1562 17.2381 12.3789C17.1443 12.6016 17.0974 12.8535 17.0974 13.1348H15.4041C15.4041 12.627 15.5252 12.1621 15.7674 11.7402C16.0095 11.3145 16.3513 10.9766 16.7927 10.7266C17.2342 10.4727 17.7576 10.3457 18.3631 10.3457C18.9607 10.3457 19.4646 10.4434 19.8748 10.6387C20.2888 10.8301 20.6013 11.1074 20.8123 11.4707C21.0271 11.8301 21.1345 12.2598 21.1345 12.7598C21.1345 13.041 21.0896 13.3164 20.9998 13.5859C20.9099 13.8516 20.781 14.1172 20.6131 14.3828C20.449 14.6445 20.2498 14.9102 20.0154 15.1797C19.781 15.4492 19.5213 15.7285 19.2361 16.0176L17.7537 17.6816H21.4099Z" fill="white"/>
</svg>
